<svg width="75" height="80" viewBox="0 0 75 80" fill="none" xmlns="http://www.w3.org/2000/svg">
<path d="M35.8404 28.1486C33.7971 31.0195 30.8447 33.1168 27.4611 34.1011L26.4695 34.3895C23.0494 35.3844 19.4896 33.3291 18.6411 29.8698L18.3951 28.8668C17.5557 25.4444 17.8958 21.8389 19.3605 18.6339L21.4247 14.1168C22.986 10.7002 26.2985 8.41807 30.0471 8.17631C34.0534 7.91793 37.5357 5.334 38.9441 1.57457L39.534 0H20.6452C9.24315 0 0 9.24315 0 20.6452V59.3548C0 70.7568 9.24315 80 20.6452 80H40.823C39.1541 77.0866 36.173 75.1365 32.7983 74.796C29.0294 74.4166 25.7595 72.0266 24.252 68.5521L18.3521 54.5719C18.0343 53.8412 17.6527 51.8414 18.341 51.444C18.6092 51.2892 18.9523 51.3811 19.1072 51.6493L26.2606 64.0394C26.5846 64.6006 27.3028 64.793 27.864 64.469C28.4252 64.145 28.6176 63.4268 28.2936 62.8656L22.1099 52.1552C21.7858 51.5938 21.3149 49.7271 21.8763 49.403C22.4377 49.0788 23.8188 50.42 24.143 50.9814L30.3266 61.6919C30.6506 62.2531 31.3688 62.4455 31.93 62.1215C32.4912 61.7975 32.6836 61.0793 32.3596 60.5181L26.176 49.8077C25.8518 49.2463 25.3809 47.3795 25.9423 47.0554C26.5037 46.7313 27.8849 48.0725 28.209 48.6339L34.3926 59.3443C34.7167 59.9055 35.4348 60.098 35.996 59.774C36.2323 59.6376 36.4035 59.4328 36.4983 59.1981C36.6289 58.8756 36.6137 58.4962 36.4257 58.1706L30.1197 47.2484C29.8631 46.8039 29.3521 45.0868 29.7966 44.8302C30.4934 44.4278 32.0461 45.7691 32.5147 46.4233L41.4316 58.6476C43.6228 61.7062 43.9493 65.7213 42.2825 69.0944C40.521 72.655 40.9942 76.9128 43.4833 80H59.3548C65.4068 80 70.8505 77.3959 74.6267 73.2472L50.7291 43.2137C49.2324 41.3327 49.2324 38.6675 50.7291 36.7865L74.6268 6.7529C70.8506 2.60409 65.4068 0 59.3548 0H42.9595L40.7202 3.22619C38.6029 6.27679 38.2405 10.2143 39.7654 13.6002C41.3086 17.0266 40.9178 21.0147 38.7387 24.0763L35.8404 28.1486Z" fill="#FE724C"/>
</svg>
