<svg width="93" height="93" viewBox="0 0 93 93" fill="none" xmlns="http://www.w3.org/2000/svg">
<path d="M69 0H24C10.7452 0 0 10.7452 0 24V69C0 82.2548 10.7452 93 24 93H69C82.2548 93 93 82.2548 93 69V24C93 10.7452 82.2548 0 69 0Z" fill="white"/>
<path fill-rule="evenodd" clip-rule="evenodd" d="M86.7537 7.8501L58.9726 42.7641C57.2327 44.9507 57.2327 48.0491 58.9726 50.2357L86.7537 85.1497C90.6343 80.8861 93 75.2193 93 68.9999V23.9999C93 17.7805 90.6343 12.1136 86.7537 7.8501Z" fill="#FE724C"/>
<path d="M41.6645 32.7224C39.2891 36.0599 35.857 38.498 31.9235 39.6422L30.7708 39.9775C26.7949 41.134 22.6566 38.7448 21.6703 34.7233L21.3843 33.5573C20.4085 29.5788 20.8039 25.3874 22.5065 21.6615L24.9062 16.4104C26.7212 12.4387 30.572 9.7857 34.9298 9.50466C39.587 9.2043 43.6352 6.20047 45.2725 1.83014L48.4059 -6.53369L52.7387 -4.0321L47.3373 3.75015C44.8758 7.29647 44.4545 11.8738 46.2273 15.8099C48.0213 19.7931 47.5669 24.4292 45.0338 27.9884L41.6645 32.7224Z" fill="#FE724C"/>
<path d="M32.7928 56.5366C32.416 55.884 30.8104 54.3248 30.1578 54.7016C29.5052 55.0784 30.0526 57.2485 30.4294 57.9011L37.6179 70.352C37.9946 71.0043 37.7709 71.8392 37.1185 72.2159C36.4661 72.5926 35.6312 72.3688 35.2546 71.7165L28.0661 59.2656C27.6893 58.613 26.0837 57.0538 25.431 57.4306C24.7784 57.8074 25.3259 59.9775 25.7027 60.6301L32.8912 73.081C33.2678 73.7333 33.0441 74.5682 32.3917 74.9449C31.7393 75.3216 30.9044 75.0978 30.5278 74.4455L22.212 60.042C22.0319 59.7302 21.6331 59.6233 21.3213 59.8034C20.5212 60.2653 20.9648 62.59 21.3341 63.4395L28.1928 79.6915C29.9453 83.7306 33.7465 86.5089 38.1279 86.95C42.3747 87.3785 46.0854 89.9998 47.9051 93.8606L51.9779 102.502L56.3107 99.9998L50.626 93.0939C47.6655 89.4978 47.0876 84.4975 49.1533 80.3219C51.091 76.4007 50.7113 71.7331 48.1641 68.1775L37.7982 53.9668C37.2535 53.2063 35.4485 51.647 34.6384 52.1147C34.1217 52.413 34.7158 54.4092 35.0141 54.9259L42.3447 67.6229C42.5633 68.0015 42.581 68.4426 42.4291 68.8174C42.319 69.0903 42.1199 69.3283 41.8453 69.4869C41.1929 69.8636 40.358 69.6398 39.9813 68.9875L32.7928 56.5366Z" fill="#FE724C"/>
<path d="M69 0.5H24C11.0213 0.5 0.5 11.0213 0.5 24V69C0.5 81.9787 11.0213 92.5 24 92.5H69C81.9787 92.5 92.5 81.9787 92.5 69V24C92.5 11.0213 81.9787 0.5 69 0.5Z" stroke="white"/>
</svg>
